# xmcd CD database file
#
# Track frame offsets:
#	150
#	34088
#	48896
#	72693
#	96265
#	127695
#	146488
#	177598
#	199833
#
# Disc length: 3004 seconds
#
# Revision: 0
# Processed by: cddbd v1.5.2PL0 Copyright (c) Steve Scherf et al.
# Submitted via: CDex 1.51
#
DISCID=810bba09
DTITLE=Medwyn Goodall - Ancient Nazca: Inca Mysteries
DYEAR=2006
DGENRE=New Age
TTITLE0=Andes, The Restless Landscape 
TTITLE1=Viscacha 
TTITLE2=Chimborozo 
TTITLE3=El Misti
TTITLE4=Atacama 
TTITLE5=Taruca 
TTITLE6=Machu Picchu Part 2: The Inner Temple
TTITLE7=Es Para Ti 
TTITLE8=Ansiedad
EXTD=YEAR: 2006
EXTT0=
EXTT1=
EXTT2=
EXTT3=
EXTT4=
EXTT5=
EXTT6=
EXTT7=
EXTT8=
PLAYORDER=
